<svg xmlns="http://www.w3.org/2000/svg" viewBox="0 0 128 128">
  <defs>
    <linearGradient id="g" x1="0" y1="0" x2="1" y2="1">
      <stop offset="0" stop-color="#7cf7c7"/>
      <stop offset="1" stop-color="#7aa7ff"/>
    </linearGradient>
    <filter id="s" x="-30%" y="-30%" width="160%" height="160%">
      <feDropShadow dx="0" dy="8" stdDeviation="8" flood-color="#000" flood-opacity="0.45"/>
    </filter>
  </defs>
  <rect x="10" y="10" width="108" height="108" rx="28" fill="url(#g)" filter="url(#s)"/>
  <path d="M42 78c0-18 12-30 30-30 7 0 14 2 20 6v14c-6-5-13-8-20-8-9 0-15 6-15 18s6 18 15 18c7 0 14-3 20-8v14c-6 4-13 6-20 6-18 0-30-12-30-30z" fill="#0b0f17" opacity="0.95"/>
</svg>
